<svg xmlns="http://www.w3.org/2000/svg" xmlns:xlink="http://www.w3.org/1999/xlink" width="500" zoomAndPan="magnify" viewBox="0 0 375 374.999991" height="500" preserveAspectRatio="xMidYMid meet" version="1.0"><defs><clipPath id="8adcf2d41a"><path d="M 75 14.570312 L 301.367188 14.570312 L 301.367188 358 L 75 358 Z M 75 14.570312 " clip-rule="nonzero"/></clipPath></defs><g clip-path="url(#8adcf2d41a)"><path fill="#b58863" d="M 185.488281 14.941406 C 181.441406 14.941406 178.195312 18.191406 178.195312 22.234375 L 178.195312 37.910156 C 178.195312 41.953125 181.441406 45.199219 185.488281 45.199219 L 289.269531 45.199219 C 293.3125 45.199219 296.5625 41.953125 296.5625 37.910156 L 296.5625 22.234375 C 296.5625 18.191406 293.3125 14.941406 289.269531 14.941406 Z M 185.488281 50.636719 C 181.441406 50.636719 178.195312 53.886719 178.195312 57.929688 L 178.195312 73.605469 C 178.195312 77.648438 181.441406 80.894531 185.488281 80.894531 L 289.269531 80.894531 C 293.3125 80.894531 296.5625 77.648438 296.5625 73.605469 L 296.5625 57.929688 C 296.5625 53.886719 293.3125 50.636719 289.269531 50.636719 Z M 122.960938 63.375 C 120.894531 63.507812 118.824219 63.921875 116.8125 64.527344 L 116.8125 64.511719 C 115.472656 64.917969 114.148438 65.402344 112.871094 65.960938 C 107.761719 68.183594 103.132812 71.375 98.28125 74.164062 C 93.488281 76.914062 88.425781 79.300781 83.003906 80.40625 C 82.839844 80.4375 82.691406 80.445312 82.527344 80.46875 C 82.210938 80.484375 81.898438 80.585938 81.585938 80.679688 C 79.585938 81.285156 78.46875 83.382812 79.078125 85.382812 C 79.25 85.96875 79.554688 86.503906 79.972656 86.933594 C 80.105469 87.089844 80.261719 87.246094 80.386719 87.410156 C 80.667969 87.75 80.917969 88.085938 81.179688 88.445312 C 81.632812 89.082031 82 89.808594 82.234375 90.554688 C 82.496094 91.421875 82.628906 92.347656 82.566406 93.25 C 82.085938 96.890625 82.015625 100.558594 82.410156 104.203125 C 82.816406 107.90625 83.675781 111.558594 84.96875 115.058594 C 85 115.140625 85.039062 115.203125 85.0625 115.28125 C 85.449219 116.558594 85.417969 117.945312 84.9375 119.195312 C 84.453125 120.300781 83.984375 121.414062 83.566406 122.542969 C 82.808594 124.578125 82.195312 126.640625 81.859375 128.785156 C 81.765625 129.359375 81.710938 129.890625 81.859375 130.425781 C 82.007812 130.972656 82.367188 131.425781 82.816406 131.78125 C 83.371094 132.21875 83.992188 132.5 84.671875 132.648438 C 85.339844 132.804688 86.066406 132.820312 86.78125 132.8125 C 87.273438 132.8125 87.78125 132.796875 88.285156 132.75 C 88.792969 132.703125 89.253906 133 89.414062 133.480469 C 89.695312 134.285156 89.992188 135.0625 90.296875 135.824219 C 91.144531 137.929688 92.125 139.96875 93.15625 141.988281 C 93.667969 142.992188 94.136719 144.023438 94.621094 145.050781 C 96.964844 150.597656 103.21875 153.449219 108.984375 151.703125 C 109.734375 151.570312 110.792969 151.351562 111.523438 151.15625 C 113.386719 150.691406 115.3125 150.441406 117.210938 150.214844 L 117.226562 150.199219 C 120.15625 149.988281 123.070312 149.445312 125.882812 148.585938 C 140.332031 144.183594 150.976562 131.882812 153.257812 116.949219 C 153.265625 116.949219 153.273438 116.949219 153.289062 116.949219 C 153.335938 116.660156 153.351562 116.359375 153.398438 116.070312 C 153.484375 115.4375 153.53125 114.816406 153.578125 114.183594 L 153.59375 114.167969 C 154.511719 107.703125 154.792969 101.144531 154.105469 94.644531 C 153.617188 89.925781 152.6875 85.226562 150.804688 80.886719 C 148.910156 76.550781 146.003906 72.582031 142.085938 69.964844 C 140.253906 68.742188 138.183594 67.863281 136.015625 67.285156 C 135.886719 67.246094 135.746094 67.191406 135.636719 67.105469 C 133.6875 65.621094 131.453125 64.503906 129.09375 63.914062 C 127.097656 63.382812 125.023438 63.242188 122.960938 63.375 Z M 185.488281 86.332031 C 181.441406 86.332031 178.195312 89.597656 178.195312 93.640625 L 178.195312 109.300781 C 178.195312 113.34375 181.441406 116.605469 185.488281 116.605469 L 289.269531 116.605469 C 293.3125 116.605469 296.5625 113.34375 296.5625 109.300781 L 296.5625 93.640625 C 296.5625 89.597656 293.3125 86.332031 289.269531 86.332031 Z M 185.488281 122.042969 C 181.441406 122.042969 178.195312 125.292969 178.195312 129.335938 L 178.195312 133.007812 C 178.964844 133.121094 179.730469 133.167969 180.492188 133.371094 C 181.320312 133.589844 182.167969 133.871094 183.046875 134.222656 L 183.257812 134.285156 C 188.160156 136.058594 192.996094 137.75 197.867188 139.183594 C 208.773438 142.386719 219.964844 144.816406 231.230469 146.640625 C 236.148438 146.585938 240.992188 146.476562 245.761719 146.140625 C 257.28125 145.316406 268.78125 143.664062 280.132812 141.378906 L 279.953125 141.425781 C 281.089844 141.15625 282.0625 141.039062 282.890625 140.953125 C 282.90625 140.953125 282.90625 140.953125 282.921875 140.953125 C 287.921875 140.460938 292.660156 141.847656 296.570312 144.433594 L 296.570312 129.335938 C 296.570312 125.292969 293.320312 122.042969 289.277344 122.042969 Z M 171.183594 137.082031 C 168.074219 137.265625 164.949219 138.132812 162.039062 139.761719 L 133.585938 155.675781 C 123.25 161.457031 119.5625 174.425781 125.335938 184.765625 L 129.355469 191.964844 C 129.410156 192.066406 129.441406 192.171875 129.496094 192.265625 L 154.300781 236.664062 C 141.316406 242.257812 128.414062 248.0625 115.699219 254.238281 C 115.488281 254.316406 115.289062 254.425781 115.078125 254.511719 C 114.734375 254.667969 114.445312 254.878906 114.117188 255.042969 C 113.402344 255.390625 112.691406 255.757812 112.03125 256.195312 C 111.765625 256.375 111.539062 256.59375 111.28125 256.785156 C 110.566406 257.324219 109.882812 257.878906 109.242188 258.523438 C 109.101562 258.664062 108.992188 258.820312 108.859375 258.96875 C 108.191406 259.699219 107.558594 260.472656 107.007812 261.328125 L 106.992188 261.34375 C 106.976562 261.375 106.96875 261.40625 106.945312 261.4375 C 106.4375 262.242188 105.929688 263.035156 105.542969 263.929688 C 95.328125 286.1875 86.042969 308.890625 77.652344 331.902344 C 77.550781 332.097656 77.488281 332.324219 77.394531 332.523438 C 73.539062 341.757812 77.902344 352.367188 87.132812 356.214844 C 96.355469 360.0625 106.960938 355.703125 110.808594 346.476562 C 111.011719 345.988281 111.183594 345.488281 111.335938 344.988281 C 118.761719 324.578125 127.011719 304.503906 135.925781 284.707031 C 149.175781 278.367188 162.597656 272.414062 176.136719 266.734375 C 171.542969 274.363281 166.921875 281.964844 162.550781 289.710938 C 162.417969 289.886719 162.324219 290.097656 162.199219 290.285156 C 156.878906 298.761719 159.441406 309.925781 167.917969 315.238281 C 168.183594 315.402344 168.472656 315.496094 168.738281 315.652344 C 188.460938 329.378906 208.757812 342.308594 229.496094 354.4375 C 229.671875 354.578125 229.875 354.679688 230.054688 354.804688 C 238.445312 360.242188 249.671875 357.867188 255.101562 349.460938 C 260.53125 341.070312 258.140625 329.859375 249.742188 324.429688 C 249.296875 324.144531 248.84375 323.871094 248.371094 323.621094 C 232.515625 314.367188 217.046875 304.503906 201.808594 294.28125 C 211.179688 278.3125 220.902344 262.550781 231.292969 247.21875 C 231.417969 247.042969 231.550781 246.839844 231.675781 246.644531 C 231.738281 246.542969 231.769531 246.441406 231.832031 246.339844 C 236.558594 239.8125 237.417969 230.921875 233.21875 223.398438 L 229.183594 216.199219 C 229.128906 216.105469 229.113281 215.988281 229.058594 215.894531 L 209.386719 180.644531 C 214.636719 181.765625 219.886719 182.839844 225.179688 183.707031 C 225.777344 183.855469 226.371094 183.871094 226.96875 183.945312 C 226.984375 183.945312 227 183.960938 227.015625 183.960938 C 227.03125 183.960938 227.046875 183.960938 227.0625 183.960938 C 227.8125 184.054688 228.550781 184.125 229.300781 184.117188 C 229.601562 184.117188 229.875 184.171875 230.179688 184.164062 C 236.265625 184.125 242.363281 183.976562 248.472656 183.542969 C 261.386719 182.613281 274.21875 180.832031 286.925781 178.308594 C 295.75 177.246094 302.117188 169.292969 301.257812 160.445312 C 300.378906 151.453125 292.386719 144.878906 283.394531 145.757812 C 282.617188 145.835938 281.867188 145.921875 281.113281 146.109375 C 269.582031 148.429688 257.867188 150.121094 246.117188 150.960938 C 241.023438 151.328125 235.90625 151.429688 230.78125 151.476562 C 219.234375 149.621094 207.742188 147.121094 196.515625 143.828125 C 191.421875 142.332031 186.414062 140.578125 181.410156 138.761719 C 180.71875 138.46875 179.996094 138.242188 179.269531 138.046875 C 178.507812 137.84375 177.742188 137.773438 176.988281 137.679688 C 176.089844 137.484375 175.210938 137.1875 174.292969 137.121094 C 173.261719 137.019531 172.21875 137.011719 171.183594 137.082031 Z M 171.183594 137.082031 " fill-opacity="1" fill-rule="nonzero"/></g></svg>