<svg xmlns="http://www.w3.org/2000/svg" xmlns:xlink="http://www.w3.org/1999/xlink" width="500" zoomAndPan="magnify" viewBox="0 0 375 374.999991" height="500" preserveAspectRatio="xMidYMid meet" version="1.0"><defs><clipPath id="7df2caad91"><path d="M 37.5 46.5 L 354 46.5 L 354 343.5 L 37.5 343.5 Z M 37.5 46.5 " clip-rule="nonzero"/></clipPath></defs><g clip-path="url(#7df2caad91)"><path fill="#b58863" d="M 197.695312 46.5 C 204.40625 46.578125 211.121094 46.578125 217.832031 46.660156 C 219.84375 56.269531 221.085938 66.011719 222.839844 75.683594 C 230.117188 77.085938 237.375 78.726562 244.3125 81.414062 C 250.414062 73.574219 255.097656 64.238281 262.582031 57.71875 C 272.4375 62.195312 282.109375 67.234375 290.996094 73.460938 C 288.066406 82.929688 284.492188 92.183594 280.871094 101.40625 C 286.539062 106.351562 291.976562 111.550781 296.96875 117.183594 C 306.175781 113.546875 315.15625 109.3125 324.574219 106.203125 C 330.515625 115.460938 336.390625 124.8125 341.105469 134.761719 C 333.523438 141.199219 325.734375 147.382812 317.832031 153.402344 C 319.84375 160.246094 321.96875 167.054688 323.722656 173.992188 C 333.332031 175.230469 342.957031 176.210938 352.535156 177.710938 C 353.550781 188.898438 353.710938 200.199219 352.488281 211.386719 C 342.878906 213.222656 333.171875 214.445312 323.464844 215.601562 C 321.742188 222.703125 320.019531 229.785156 317.6875 236.707031 C 324.882812 242.210938 332.125 247.667969 339.09375 253.464844 C 341.75 254.816406 339.496094 257.441406 338.789062 259.277344 C 334.203125 267.597656 329.5 275.90625 324.09375 283.742188 C 314.886719 280.316406 305.820312 276.546875 296.839844 272.589844 C 291.816406 278.207031 286.246094 283.292969 280.660156 288.347656 C 284.332031 297.523438 287.855469 306.761719 291.1875 316.082031 C 282.109375 322.25 272.546875 327.738281 262.632812 332.421875 C 256.082031 325.019531 250.480469 316.855469 244.84375 308.757812 C 237.617188 311.191406 230.277344 313.203125 222.902344 315.070312 C 221.214844 324.339844 220.328125 333.808594 217.882812 342.917969 C 211.121094 343.804688 204.261719 343.433594 197.46875 343.722656 C 197.664062 324.246094 197.453125 304.75 197.648438 285.273438 C 221.90625 285.546875 246.664062 277.433594 264.433594 260.578125 C 281.757812 245.125 291.816406 222.414062 293.136719 199.375 C 294.585938 173.476562 283.769531 147.285156 264.742188 129.707031 C 246.9375 112.660156 221.9375 104.660156 197.566406 104.902344 C 197.628906 85.4375 197.421875 65.960938 197.695312 46.5 Z M 130.84375 52.84375 C 144.671875 44.488281 163.808594 46.789062 175.367188 58.074219 C 183.480469 65.125 187.28125 76.023438 187.085938 86.613281 C 187.121094 153.175781 187.085938 219.773438 187.101562 286.351562 C 186.941406 295.1875 187.796875 304.15625 186.039062 312.894531 C 183.207031 325.742188 172.390625 335.964844 159.816406 339.230469 C 148.824219 342.242188 136.621094 339.472656 127.445312 332.90625 C 120.683594 328.09375 116.613281 320.621094 113.730469 313.042969 C 97.167969 312.460938 80.796875 304.816406 70.589844 291.613281 C 58.128906 276.484375 53.6875 255.378906 59.113281 236.53125 C 45.109375 226.195312 36.816406 208.777344 37.945312 191.375 C 38.363281 175.792969 46.636719 161.402344 58.695312 151.839844 C 50.226562 122.929688 67.515625 90.027344 95.332031 79.289062 C 100.964844 77.085938 106.984375 76.070312 112.992188 75.507812 C 116.160156 66.203125 122.148438 57.71875 130.84375 52.84375 Z M 123.195312 81.609375 C 121.683594 93.375 129.539062 106.816406 141.789062 108.75 C 146.648438 109.808594 150.449219 106.011719 154.761719 104.5625 C 159.816406 103.789062 161.832031 110.984375 157.949219 113.722656 C 152.542969 118.132812 146.503906 122.703125 144.734375 129.867188 C 142.53125 136.582031 145.714844 143.195312 147.808594 149.460938 C 146.8125 153.691406 140.871094 155.65625 138.28125 151.777344 C 131.90625 141.988281 132.824219 128.949219 138.101562 118.875 C 133.402344 117.085938 128.636719 115.203125 124.710938 111.984375 C 116.871094 105.738281 113.425781 95.710938 112.25 86.066406 C 106.679688 87.113281 101.03125 88.113281 95.925781 90.65625 C 75.546875 100.214844 63.636719 124.1875 67.820312 146.253906 C 82.695312 139.914062 101.769531 140.203125 114.117188 151.648438 C 122.777344 159.179688 123.855469 172.058594 132.839844 179.304688 C 140.40625 186.195312 151.480469 189.816406 161.363281 185.96875 C 170.796875 182.925781 176.703125 173.058594 176.574219 163.382812 C 176.863281 137.320312 176.589844 111.257812 176.6875 85.199219 C 176.882812 71.628906 165.4375 58.832031 151.65625 58.507812 C 138.085938 57.171875 124.546875 67.972656 123.195312 81.609375 Z M 71.296875 156.125 C 57.503906 163.578125 48.003906 178.707031 48.375 194.53125 C 48.664062 209.550781 57.421875 224.683594 71.1875 231.121094 C 82.003906 236.0625 95.992188 232.957031 103.21875 223.363281 C 106.582031 219.449219 107.339844 214.21875 108.964844 209.503906 C 111.398438 205.816406 118.59375 207.410156 118.269531 212.222656 C 117.804688 224.457031 109.046875 235.402344 98.019531 240.183594 C 103.105469 245.542969 106.953125 252.886719 105.84375 260.46875 C 105.183594 264.828125 99.164062 265.648438 96.636719 262.367188 C 95.121094 258.003906 95.347656 252.851562 91.902344 249.34375 C 86.238281 242.148438 76.046875 245.0625 68.351562 242.035156 C 63.683594 262.71875 73.648438 285.226562 91.515625 296.347656 C 97.746094 300.277344 105.132812 301.515625 112.332031 302.417969 C 112.378906 290.359375 117.722656 278.511719 127.367188 271.171875 C 122.054688 261.660156 120.71875 249.828125 124.886719 239.652344 C 129.152344 227.082031 141.742188 218.257812 154.941406 218.097656 C 160.363281 218.113281 161.105469 226.808594 155.792969 227.789062 C 149.453125 228.753906 142.898438 230.863281 138.90625 236.238281 C 129.363281 246.621094 131.566406 264.28125 142.320312 272.972656 C 146.410156 276.886719 152.15625 277.691406 157.324219 279.332031 C 161.925781 281.265625 159.800781 289.378906 154.796875 288.894531 C 146.828125 288.265625 139.632812 284.195312 133.402344 279.445312 C 129.652344 283.339844 125.980469 287.511719 124.144531 292.695312 C 118.253906 307.953125 129.136719 326.464844 145.054688 329.445312 C 159.980469 332.984375 176.351562 321.027344 176.609375 305.445312 C 176.863281 266.503906 176.511719 227.53125 176.640625 188.574219 C 164.886719 199.296875 146.28125 200.472656 132.886719 192.179688 C 125.5 188.1875 120.621094 179.675781 111.605469 179.015625 C 102.832031 177.210938 94.753906 182.007812 89.152344 188.351562 C 85.6875 192.9375 77.851562 186.417969 81.3125 181.960938 C 88.441406 171.964844 101.433594 167.390625 113.425781 168.550781 C 109.964844 162.160156 105.039062 155.816406 97.730469 153.804688 C 89.019531 151.632812 79.378906 151.9375 71.296875 156.125 Z M 197.871094 125.875 C 199.804688 125.84375 201.800781 125.617188 203.683594 126.328125 C 204.503906 131.75 204.085938 137.289062 204.132812 142.761719 C 201.992188 142.859375 199.867188 142.957031 197.761719 143.050781 C 197.664062 137.320312 197.679688 131.589844 197.871094 125.875 Z M 213.035156 127.050781 C 214.355469 124.828125 217.1875 125.796875 219.28125 125.488281 C 220.183594 131.332031 219.941406 137.273438 219.894531 143.164062 C 217.542969 143.085938 215.226562 143.019531 212.90625 142.957031 C 212.761719 137.644531 212.40625 132.316406 213.035156 127.050781 Z M 228.585938 126.824219 C 230.4375 125.601562 232.609375 124.8125 234.734375 126.035156 C 236.570312 131.527344 235.445312 137.464844 235.574219 143.164062 C 233.207031 143.101562 230.855469 143.035156 228.523438 142.972656 C 228.359375 137.578125 227.925781 132.171875 228.585938 126.824219 Z M 197.597656 145.578125 C 212.328125 145.820312 227.058594 145.675781 241.769531 145.5 C 246.777344 145 250.753906 149.667969 250.816406 154.417969 C 250.882812 180.125 250.574219 205.832031 250.769531 231.539062 C 250.609375 234.871094 251.089844 238.914062 248.355469 241.441406 C 245.101562 245.109375 239.773438 244.417969 235.363281 244.546875 C 222.792969 244.222656 210.234375 244.304688 197.664062 244.433594 C 197.4375 211.480469 197.550781 178.53125 197.597656 145.578125 Z M 253.554688 159.132812 C 259.285156 158.972656 265.03125 158.988281 270.746094 159.535156 C 270.601562 161.5625 272.179688 165.152344 269.394531 165.992188 C 264.226562 166.875 258.929688 166.199219 253.730469 166.265625 C 253.648438 163.867188 253.601562 161.5 253.554688 159.132812 Z M 253.503906 174.988281 C 259.15625 175.199219 264.902344 174.457031 270.519531 175.457031 C 271.566406 177.355469 271.613281 179.289062 270.664062 181.234375 C 265.144531 182.910156 259.269531 181.925781 253.601562 182.121094 C 253.554688 179.738281 253.519531 177.355469 253.503906 174.988281 Z M 253.425781 190.636719 C 259.25 190.636719 265.09375 190.554688 270.921875 190.972656 C 271.019531 193.226562 271.066406 195.480469 271.066406 197.765625 C 265.191406 198.234375 259.285156 198.105469 253.390625 198.058594 C 253.390625 195.578125 253.390625 193.097656 253.425781 190.636719 Z M 253.410156 206.410156 C 259.089844 206.410156 264.789062 206.347656 270.488281 206.523438 C 271.210938 208.792969 271.484375 211.144531 271.019531 213.527344 C 265.128906 214.105469 259.203125 214.011719 253.296875 213.976562 C 253.3125 211.433594 253.34375 208.921875 253.410156 206.410156 Z M 253.3125 222.574219 C 258.738281 222.671875 264.210938 222.234375 269.636719 222.832031 C 271.886719 224.265625 271.519531 227.484375 270.019531 229.351562 C 264.46875 230.203125 258.816406 229.609375 253.230469 229.671875 C 253.230469 227.289062 253.261719 224.921875 253.3125 222.574219 Z M 197.679688 247.121094 C 199.320312 247.171875 202.605469 247.28125 204.246094 247.332031 C 204.199219 252.964844 204.183594 258.617188 203.894531 264.28125 C 202.378906 264.25 199.351562 264.21875 197.855469 264.1875 C 197.628906 258.503906 197.664062 252.804688 197.679688 247.121094 Z M 212.890625 247.042969 C 215.226562 247.058594 217.558594 247.089844 219.910156 247.171875 C 220.039062 252.917969 220.167969 258.679688 219.75 264.425781 C 217.511719 264.332031 215.289062 264.203125 213.085938 264.023438 C 212.761719 258.359375 212.84375 252.691406 212.890625 247.042969 Z M 228.523438 247.15625 C 230.953125 247.136719 233.382812 247.136719 235.832031 247.171875 C 235.832031 252.886719 235.78125 258.601562 235.523438 264.332031 C 233.222656 264.539062 231.015625 264.296875 228.890625 263.574219 C 227.828125 258.164062 228.539062 252.613281 228.523438 247.15625 Z M 228.523438 247.15625 " fill-opacity="1" fill-rule="nonzero"/></g></svg>